<svg xmlns="http://www.w3.org/2000/svg" width="720" height="960" viewBox="0 0 720 960"><defs><linearGradient id="sky" x2="0" y2="1"><stop stop-color="#c7d9df"/><stop offset="1" stop-color="#f6eee1"/></linearGradient><filter id="grain"><feTurbulence type="fractalNoise" baseFrequency=".7" numOctaves="3" stitchTiles="stitch"/><feColorMatrix type="saturate" values="0"/><feComponentTransfer><feFuncA type="linear" slope=".10"/></feComponentTransfer><feBlend in="SourceGraphic" mode="multiply"/></filter></defs><g filter="url(#grain)"><path fill="url(#sky)" d="M0 0h720v960H0z"/><circle cx="480" cy="270" r="80" fill="#dfb68d"/><path fill="#42696d" opacity=".5" d="M0 580L190 330l180 220 150-130 200 210v330H0z"/><path fill="#42696d" d="M0 690l220-170 200 160 300-120v400H0z"/><path fill="#b7c8be" d="M320 960c-180-190 370-180 60-360 400 180-10 250 210 360z"/><path fill="#eee4cc" d="M0 865q200-90 320 95H0z"/><path fill="#223f3e" d="M60 790l45-165 45 165h-35v95H95v-95zm510-70 50-195 50 195h-40v120h-20V720z"/></g></svg>